<mxfile host="Electron" modified="2024-04-23T16:24:44.431Z" agent="Mozilla/5.0 (Windows NT 10.0; Win64; x64) AppleWebKit/537.36 (KHTML, like Gecko) draw.io/23.0.2 Chrome/120.0.6099.109 Electron/28.1.0 Safari/537.36" etag="N5Z82cBU9sHnk3F6REQs" version="23.0.2" type="device">
  <diagram name="Page-1" id="2-9XDFGDYHRk8CFv4oU7">
    <mxGraphModel dx="1518" dy="731" grid="1" gridSize="10" guides="1" tooltips="1" connect="1" arrows="1" fold="1" page="1" pageScale="1" pageWidth="3300" pageHeight="4681" math="0" shadow="0">
      <root>
        <mxCell id="0" />
        <mxCell id="1" parent="0" />
        <mxCell id="6mntWYNKxUaJP8vosQ2r-15" value="&lt;span style=&quot;font-weight: 400;&quot;&gt;\&lt;/span&gt;" style="text;strokeColor=none;fillColor=none;html=1;fontSize=24;fontStyle=1;verticalAlign=middle;align=center;" vertex="1" parent="1">
          <mxGeometry x="2300" y="110" width="430" height="40" as="geometry" />
        </mxCell>
        <mxCell id="6mntWYNKxUaJP8vosQ2r-32" value="-" style="points=[[0,0],[0.25,0],[0.5,0],[0.75,0],[1,0],[1,0.25],[1,0.5],[1,0.75],[1,1],[0.75,1],[0.5,1],[0.25,1],[0,1],[0,0.75],[0,0.5],[0,0.25]];outlineConnect=0;gradientColor=none;html=1;whiteSpace=wrap;fontSize=12;fontStyle=0;container=1;pointerEvents=0;collapsible=0;recursiveResize=0;shape=mxgraph.aws4.group;grIcon=mxgraph.aws4.group_aws_cloud_alt;strokeColor=#232F3E;fillColor=none;verticalAlign=top;align=left;spacingLeft=30;fontColor=#232F3E;dashed=0;" vertex="1" parent="1">
          <mxGeometry x="1440" y="190" width="840" height="500" as="geometry" />
        </mxCell>
        <mxCell id="6mntWYNKxUaJP8vosQ2r-34" value="" style="sketch=0;points=[[0,0,0],[0.25,0,0],[0.5,0,0],[0.75,0,0],[1,0,0],[0,1,0],[0.25,1,0],[0.5,1,0],[0.75,1,0],[1,1,0],[0,0.25,0],[0,0.5,0],[0,0.75,0],[1,0.25,0],[1,0.5,0],[1,0.75,0]];outlineConnect=0;fontColor=#232F3E;fillColor=#E7157B;strokeColor=#ffffff;dashed=0;verticalLabelPosition=bottom;verticalAlign=top;align=center;html=1;fontSize=12;fontStyle=0;aspect=fixed;shape=mxgraph.aws4.resourceIcon;resIcon=mxgraph.aws4.sns;" vertex="1" parent="6mntWYNKxUaJP8vosQ2r-32">
          <mxGeometry x="180" y="105" width="30" height="30" as="geometry" />
        </mxCell>
        <mxCell id="6mntWYNKxUaJP8vosQ2r-35" value="" style="sketch=0;points=[[0,0,0],[0.25,0,0],[0.5,0,0],[0.75,0,0],[1,0,0],[0,1,0],[0.25,1,0],[0.5,1,0],[0.75,1,0],[1,1,0],[0,0.25,0],[0,0.5,0],[0,0.75,0],[1,0.25,0],[1,0.5,0],[1,0.75,0]];outlineConnect=0;fontColor=#232F3E;fillColor=#E7157B;strokeColor=#ffffff;dashed=0;verticalLabelPosition=bottom;verticalAlign=top;align=center;html=1;fontSize=12;fontStyle=0;aspect=fixed;shape=mxgraph.aws4.resourceIcon;resIcon=mxgraph.aws4.sns;" vertex="1" parent="6mntWYNKxUaJP8vosQ2r-32">
          <mxGeometry x="180" y="140" width="30" height="30" as="geometry" />
        </mxCell>
        <mxCell id="6mntWYNKxUaJP8vosQ2r-36" value="" style="image;points=[];aspect=fixed;html=1;align=center;shadow=0;dashed=0;image=img/lib/allied_telesis/computer_and_terminals/Personal_Computer_with_Server.svg;" vertex="1" parent="6mntWYNKxUaJP8vosQ2r-32">
          <mxGeometry x="20" y="120" width="30" height="30" as="geometry" />
        </mxCell>
        <mxCell id="6mntWYNKxUaJP8vosQ2r-38" value="&lt;font style=&quot;font-size: 8px;&quot;&gt;publisher&lt;/font&gt;" style="text;strokeColor=none;fillColor=none;html=1;fontSize=24;fontStyle=1;verticalAlign=middle;align=center;" vertex="1" parent="6mntWYNKxUaJP8vosQ2r-32">
          <mxGeometry x="10" y="140" width="50" height="20" as="geometry" />
        </mxCell>
        <mxCell id="6mntWYNKxUaJP8vosQ2r-39" value="&lt;font style=&quot;font-size: 8px;&quot;&gt;Standard SNS Topic&lt;/font&gt;" style="text;strokeColor=none;fillColor=none;html=1;fontSize=24;fontStyle=1;verticalAlign=middle;align=center;" vertex="1" parent="6mntWYNKxUaJP8vosQ2r-32">
          <mxGeometry x="145" y="86" width="100" height="10" as="geometry" />
        </mxCell>
        <mxCell id="6mntWYNKxUaJP8vosQ2r-41" value="&lt;font style=&quot;font-size: 8px;&quot;&gt;FIFO SNS Topic&lt;/font&gt;" style="text;strokeColor=none;fillColor=none;html=1;fontSize=24;fontStyle=1;verticalAlign=middle;align=center;" vertex="1" parent="6mntWYNKxUaJP8vosQ2r-32">
          <mxGeometry x="140" y="160" width="110" height="20" as="geometry" />
        </mxCell>
        <mxCell id="6mntWYNKxUaJP8vosQ2r-43" value="" style="rounded=1;arcSize=10;dashed=0;fillColor=none;gradientColor=none;strokeWidth=2;" vertex="1" parent="6mntWYNKxUaJP8vosQ2r-32">
          <mxGeometry x="330" y="65" width="160" height="80" as="geometry" />
        </mxCell>
        <mxCell id="6mntWYNKxUaJP8vosQ2r-45" value="" style="rounded=1;arcSize=10;dashed=0;fillColor=none;gradientColor=none;strokeWidth=2;" vertex="1" parent="6mntWYNKxUaJP8vosQ2r-32">
          <mxGeometry x="350" y="160" width="90" height="60" as="geometry" />
        </mxCell>
        <mxCell id="6mntWYNKxUaJP8vosQ2r-46" value="&lt;font style=&quot;font-size: 6px;&quot;&gt;&amp;nbsp;SQS&lt;/font&gt;" style="sketch=0;outlineConnect=0;fontColor=#232F3E;gradientColor=none;strokeColor=#ffffff;fillColor=#232F3E;dashed=0;verticalLabelPosition=middle;verticalAlign=bottom;align=center;html=1;whiteSpace=wrap;fontSize=10;fontStyle=1;spacing=3;shape=mxgraph.aws4.productIcon;prIcon=mxgraph.aws4.sqs;" vertex="1" parent="6mntWYNKxUaJP8vosQ2r-32">
          <mxGeometry x="340" y="75" width="20" height="30" as="geometry" />
        </mxCell>
        <mxCell id="6mntWYNKxUaJP8vosQ2r-47" value="" style="sketch=0;points=[[0,0,0],[0.25,0,0],[0.5,0,0],[0.75,0,0],[1,0,0],[0,1,0],[0.25,1,0],[0.5,1,0],[0.75,1,0],[1,1,0],[0,0.25,0],[0,0.5,0],[0,0.75,0],[1,0.25,0],[1,0.5,0],[1,0.75,0]];outlineConnect=0;fontColor=#232F3E;fillColor=#ED7100;strokeColor=#ffffff;dashed=0;verticalLabelPosition=bottom;verticalAlign=top;align=center;html=1;fontSize=12;fontStyle=0;aspect=fixed;shape=mxgraph.aws4.resourceIcon;resIcon=mxgraph.aws4.lambda;" vertex="1" parent="6mntWYNKxUaJP8vosQ2r-32">
          <mxGeometry x="460" y="76" width="20" height="20" as="geometry" />
        </mxCell>
        <mxCell id="6mntWYNKxUaJP8vosQ2r-48" value="&lt;b&gt;&lt;font style=&quot;font-size: 6px;&quot;&gt;lambda&lt;/font&gt;&lt;/b&gt;" style="text;html=1;strokeColor=none;fillColor=none;align=center;verticalAlign=middle;whiteSpace=wrap;rounded=0;" vertex="1" parent="6mntWYNKxUaJP8vosQ2r-32">
          <mxGeometry x="460" y="96" width="20" as="geometry" />
        </mxCell>
        <mxCell id="6mntWYNKxUaJP8vosQ2r-51" value="" style="image;html=1;image=img/lib/clip_art/networking/Email_128x128.png" vertex="1" parent="6mntWYNKxUaJP8vosQ2r-32">
          <mxGeometry x="340" y="110" width="30" height="30" as="geometry" />
        </mxCell>
        <mxCell id="6mntWYNKxUaJP8vosQ2r-52" value="" style="sketch=0;outlineConnect=0;fontColor=#232F3E;gradientColor=none;strokeColor=#232F3E;fillColor=#ffffff;dashed=0;verticalLabelPosition=bottom;verticalAlign=top;align=center;html=1;fontSize=12;fontStyle=0;aspect=fixed;shape=mxgraph.aws4.resourceIcon;resIcon=mxgraph.aws4.mobile_client;" vertex="1" parent="6mntWYNKxUaJP8vosQ2r-32">
          <mxGeometry x="382.5" y="110" width="30" height="30" as="geometry" />
        </mxCell>
        <mxCell id="6mntWYNKxUaJP8vosQ2r-55" value="" style="sketch=0;outlineConnect=0;fontColor=#232F3E;gradientColor=none;strokeColor=#ffffff;fillColor=#232F3E;dashed=0;verticalLabelPosition=middle;verticalAlign=bottom;align=center;html=1;whiteSpace=wrap;fontSize=10;fontStyle=1;spacing=3;shape=mxgraph.aws4.productIcon;prIcon=mxgraph.aws4.sqs;" vertex="1" parent="6mntWYNKxUaJP8vosQ2r-32">
          <mxGeometry x="370" y="165" width="40" height="30" as="geometry" />
        </mxCell>
        <mxCell id="6mntWYNKxUaJP8vosQ2r-56" value="" style="outlineConnect=0;dashed=0;verticalLabelPosition=bottom;verticalAlign=top;align=center;html=1;shape=mxgraph.aws3.http_protocol;fillColor=#5294CF;gradientColor=none;" vertex="1" parent="6mntWYNKxUaJP8vosQ2r-32">
          <mxGeometry x="370" y="69" width="30" height="26" as="geometry" />
        </mxCell>
        <mxCell id="6mntWYNKxUaJP8vosQ2r-58" value="" style="endArrow=classic;html=1;rounded=0;exitX=1.096;exitY=0.484;exitDx=0;exitDy=0;exitPerimeter=0;entryX=0;entryY=1;entryDx=0;entryDy=0;entryPerimeter=0;" edge="1" parent="6mntWYNKxUaJP8vosQ2r-32" source="6mntWYNKxUaJP8vosQ2r-36" target="6mntWYNKxUaJP8vosQ2r-34">
          <mxGeometry width="50" height="50" relative="1" as="geometry">
            <mxPoint x="119.99999999999991" y="135.00000000000006" as="sourcePoint" />
            <mxPoint x="70" y="114.27407407407388" as="targetPoint" />
            <Array as="points" />
          </mxGeometry>
        </mxCell>
        <mxCell id="6mntWYNKxUaJP8vosQ2r-64" value="&lt;span style=&quot;font-size: 14px;&quot;&gt;Subscriber&lt;/span&gt;" style="text;strokeColor=none;fillColor=none;html=1;fontSize=24;fontStyle=1;verticalAlign=middle;align=center;" vertex="1" parent="6mntWYNKxUaJP8vosQ2r-32">
          <mxGeometry x="345" y="145" width="100" height="10" as="geometry" />
        </mxCell>
        <mxCell id="6mntWYNKxUaJP8vosQ2r-66" value="" style="endArrow=classic;html=1;rounded=0;entryX=-0.021;entryY=0.498;entryDx=0;entryDy=0;entryPerimeter=0;exitX=1;exitY=0.75;exitDx=0;exitDy=0;exitPerimeter=0;" edge="1" parent="6mntWYNKxUaJP8vosQ2r-32" source="6mntWYNKxUaJP8vosQ2r-34" target="6mntWYNKxUaJP8vosQ2r-43">
          <mxGeometry width="50" height="50" relative="1" as="geometry">
            <mxPoint x="290" y="200" as="sourcePoint" />
            <mxPoint x="340" y="150" as="targetPoint" />
          </mxGeometry>
        </mxCell>
        <mxCell id="6mntWYNKxUaJP8vosQ2r-67" value="" style="endArrow=classic;html=1;rounded=0;entryX=-0.019;entryY=0.382;entryDx=0;entryDy=0;entryPerimeter=0;exitX=1;exitY=0.5;exitDx=0;exitDy=0;exitPerimeter=0;" edge="1" parent="6mntWYNKxUaJP8vosQ2r-32" source="6mntWYNKxUaJP8vosQ2r-35" target="6mntWYNKxUaJP8vosQ2r-45">
          <mxGeometry width="50" height="50" relative="1" as="geometry">
            <mxPoint x="290" y="200" as="sourcePoint" />
            <mxPoint x="340" y="150" as="targetPoint" />
          </mxGeometry>
        </mxCell>
        <mxCell id="6mntWYNKxUaJP8vosQ2r-68" value="&lt;h1&gt;&lt;font style=&quot;font-size: 10px;&quot;&gt;Security&lt;/font&gt;&lt;/h1&gt;&lt;p&gt;&lt;font style=&quot;font-size: 10px;&quot;&gt;Encryption can be done at server side using amazon KMS, In-flight using https and at client side using any method.&lt;/font&gt;&lt;/p&gt;&lt;p&gt;&lt;font style=&quot;font-size: 10px;&quot;&gt;IAM Policies can be used to control access to sns apis.&lt;/font&gt;&lt;/p&gt;&lt;p&gt;&lt;font style=&quot;font-size: 10px;&quot;&gt;SNS Policies can be used to control who can publish the message to sns.&lt;/font&gt;&lt;/p&gt;&lt;p&gt;&lt;font style=&quot;font-size: 8px;&quot;&gt;&lt;br&gt;&lt;/font&gt;&lt;/p&gt;" style="text;html=1;strokeColor=none;fillColor=none;spacing=5;spacingTop=-20;whiteSpace=wrap;overflow=hidden;rounded=0;" vertex="1" parent="6mntWYNKxUaJP8vosQ2r-32">
          <mxGeometry x="10" y="270" width="190" height="180" as="geometry" />
        </mxCell>
        <mxCell id="6mntWYNKxUaJP8vosQ2r-74" value="&lt;font style=&quot;font-size: 8px;&quot;&gt;&amp;nbsp;Kinesis&lt;/font&gt;" style="sketch=0;outlineConnect=0;fontColor=#232F3E;gradientColor=none;strokeColor=#ffffff;fillColor=#232F3E;dashed=0;verticalLabelPosition=middle;verticalAlign=bottom;align=center;html=1;whiteSpace=wrap;fontSize=10;fontStyle=1;spacing=3;shape=mxgraph.aws4.productIcon;prIcon=mxgraph.aws4.kinesis;" vertex="1" parent="6mntWYNKxUaJP8vosQ2r-32">
          <mxGeometry x="410" y="70" width="30" height="42" as="geometry" />
        </mxCell>
        <mxCell id="6mntWYNKxUaJP8vosQ2r-75" value="&lt;font style=&quot;font-size: 10px;&quot;&gt;Publish&lt;/font&gt;" style="text;strokeColor=none;fillColor=none;html=1;fontSize=24;fontStyle=1;verticalAlign=middle;align=center;" vertex="1" parent="6mntWYNKxUaJP8vosQ2r-32">
          <mxGeometry x="50" y="95" width="100" height="40" as="geometry" />
        </mxCell>
        <mxCell id="6mntWYNKxUaJP8vosQ2r-76" value="&lt;font style=&quot;font-size: 9px;&quot;&gt;Subscribe&lt;/font&gt;" style="text;strokeColor=none;fillColor=none;html=1;fontSize=24;fontStyle=1;verticalAlign=middle;align=center;rotation=-15;" vertex="1" parent="6mntWYNKxUaJP8vosQ2r-32">
          <mxGeometry x="220" y="95" width="95" height="20" as="geometry" />
        </mxCell>
        <mxCell id="6mntWYNKxUaJP8vosQ2r-77" value="&lt;font style=&quot;font-size: 9px;&quot;&gt;Subscribe&lt;/font&gt;" style="text;strokeColor=none;fillColor=none;html=1;fontSize=24;fontStyle=1;verticalAlign=middle;align=center;rotation=15;" vertex="1" parent="6mntWYNKxUaJP8vosQ2r-32">
          <mxGeometry x="235" y="165" width="95" height="10" as="geometry" />
        </mxCell>
        <mxCell id="6mntWYNKxUaJP8vosQ2r-80" value="&lt;div&gt;&lt;br&gt;&lt;/div&gt;&lt;ul&gt;&lt;li&gt;FIFO = First In First Out (ordering of messages in the topic)&lt;br&gt;&lt;/li&gt;&lt;li&gt;Ordering by Message Group ID (all messages in the same group are ordered)&lt;/li&gt;&lt;li&gt;Deduplication using a Deduplication ID or Content based deduplication&lt;/li&gt;&lt;li&gt;Can have SQS Standard and FIFO queues as subscribers&lt;/li&gt;&lt;li&gt;&amp;nbsp;Limited throughput (same throughput as SQS FIFO)&lt;/li&gt;&lt;/ul&gt;" style="text;strokeColor=none;fillColor=none;html=1;whiteSpace=wrap;verticalAlign=middle;overflow=hidden;" vertex="1" parent="6mntWYNKxUaJP8vosQ2r-32">
          <mxGeometry x="330" y="300" width="370" height="150" as="geometry" />
        </mxCell>
        <mxCell id="6mntWYNKxUaJP8vosQ2r-86" style="edgeStyle=orthogonalEdgeStyle;rounded=0;orthogonalLoop=1;jettySize=auto;html=1;" edge="1" parent="6mntWYNKxUaJP8vosQ2r-32" source="6mntWYNKxUaJP8vosQ2r-41" target="6mntWYNKxUaJP8vosQ2r-80">
          <mxGeometry relative="1" as="geometry">
            <mxPoint x="120" y="210" as="sourcePoint" />
            <mxPoint x="270" y="275" as="targetPoint" />
            <Array as="points">
              <mxPoint x="195" y="275" />
              <mxPoint x="265" y="275" />
            </Array>
          </mxGeometry>
        </mxCell>
        <mxCell id="6mntWYNKxUaJP8vosQ2r-82" value="&lt;font style=&quot;font-size: 8px;&quot;&gt;FIFO SQS&lt;/font&gt;" style="text;strokeColor=none;fillColor=none;html=1;fontSize=24;fontStyle=1;verticalAlign=middle;align=center;" vertex="1" parent="6mntWYNKxUaJP8vosQ2r-32">
          <mxGeometry x="370" y="200" width="40" height="10" as="geometry" />
        </mxCell>
        <mxCell id="6mntWYNKxUaJP8vosQ2r-94" value="&lt;div&gt;SNS TOPIC&lt;/div&gt;&lt;ol&gt;&lt;li&gt;The “event producer” only sends message to one SNS topic&lt;/li&gt;&lt;li&gt;As many “event receivers” (subscriptions) as we want to listen to the SNS topic notifications&lt;/li&gt;&lt;li&gt;Each subscriber to the topic will get all the messages (note: new feature to filter messages)&lt;/li&gt;&lt;li&gt;Up to 12,500,000 subscriptions per topic 100,000 topics limit&lt;/li&gt;&lt;/ol&gt;" style="text;strokeColor=none;fillColor=none;html=1;whiteSpace=wrap;verticalAlign=middle;overflow=hidden;" vertex="1" parent="6mntWYNKxUaJP8vosQ2r-32">
          <mxGeometry x="510" y="20" width="320" height="170" as="geometry" />
        </mxCell>
      </root>
    </mxGraphModel>
  </diagram>
</mxfile>
